<?xml version="1.0" encoding="UTF-8"?>
<!-- merutable logo v2 — Mount Meru × LSM tree. Apache-2.0. -->
<svg xmlns="http://www.w3.org/2000/svg" viewBox="0 0 712 160" width="2136" height="480" role="img" aria-label="merutable">
  <g transform="translate(0 0.0) scale(0.625000)">
    <line x1="128" y1="32" x2="128" y2="224" stroke="#141B2E" stroke-width="0.9" stroke-opacity="0.18" stroke-dasharray="1.5 3" stroke-linecap="round"/>
    <line x1="24" y1="224" x2="232" y2="224" stroke="#141B2E" stroke-width="1.2" stroke-opacity="0.3" stroke-linecap="round"/>
    <path d="M 58.00 176 L 198.00 176 L 220.00 218 L 36.00 218 Z" fill="#2A3A54" stroke="none" shape-rendering="geometricPrecision"/>
    <line x1="57.10" y1="184.40" x2="198.90" y2="184.40" stroke="#F5EFE1" stroke-width="1.0" stroke-opacity="0.22" stroke-linecap="round"/>
    <line x1="52.70" y1="192.80" x2="203.30" y2="192.80" stroke="#F5EFE1" stroke-width="1.0" stroke-opacity="0.22" stroke-linecap="round"/>
    <line x1="48.30" y1="201.20" x2="207.70" y2="201.20" stroke="#F5EFE1" stroke-width="1.0" stroke-opacity="0.22" stroke-linecap="round"/>
    <line x1="43.90" y1="209.60" x2="212.10" y2="209.60" stroke="#F5EFE1" stroke-width="1.0" stroke-opacity="0.22" stroke-linecap="round"/>
    <path d="M 82.00 134 L 174.00 134 L 192.00 170 L 64.00 170 Z" fill="#4E6878" stroke="none" shape-rendering="geometricPrecision"/>
    <line x1="81.00" y1="143.00" x2="175.00" y2="143.00" stroke="#F5EFE1" stroke-width="1.0" stroke-opacity="0.26" stroke-linecap="round"/>
    <line x1="76.50" y1="152.00" x2="179.50" y2="152.00" stroke="#F5EFE1" stroke-width="1.0" stroke-opacity="0.26" stroke-linecap="round"/>
    <line x1="72.00" y1="161.00" x2="184.00" y2="161.00" stroke="#F5EFE1" stroke-width="1.0" stroke-opacity="0.26" stroke-linecap="round"/>
    <path d="M 104.00 88 L 152.00 88 L 168.00 128 L 88.00 128 Z" fill="#8FA7B0" stroke="none" shape-rendering="geometricPrecision"/>
    <line x1="102.17" y1="101.33" x2="153.83" y2="101.33" stroke="#141B2E" stroke-width="1.0" stroke-opacity="0.26" stroke-linecap="round"/>
    <line x1="96.83" y1="114.67" x2="159.17" y2="114.67" stroke="#141B2E" stroke-width="1.0" stroke-opacity="0.26" stroke-linecap="round"/>
    <path d="M 128 40 L 146.00 82 L 110.00 82 Z" fill="#CFDCE0" stroke="none" shape-rendering="geometricPrecision"/>
    <circle cx="128" cy="40" r="9" fill="none" stroke="#E0B94A" stroke-width="1" stroke-opacity="0.28"/>
    <circle cx="128" cy="40" r="6" fill="none" stroke="#E0B94A" stroke-width="0.8" stroke-opacity="0.55"/>
    <circle cx="128" cy="40" r="3.4" fill="#E0B94A"/>
  </g>
  <g fill="#141B2E">
    <g transform="translate(184.000 134.000) scale(0.048780 -0.048780)"><path d="M1440 0V638Q1440 745 1389.5 804.5Q1339 864 1250 864Q1193 864 1151.0 837.5Q1109 811 1085.5 763.5Q1062 716 1062 654L948 730Q948 841 1000.5 926.0Q1053 1011 1141.5 1058.5Q1230 1106 1338 1106Q1523 1106 1617.5 996.5Q1712 887 1712 710V0ZM138 0V1080H378V722H412V0ZM790 0V638Q790 745 739.5 804.5Q689 864 600 864Q515 864 463.5 805.5Q412 747 412 654L298 734Q298 840 351.0 924.0Q404 1008 493.5 1057.0Q583 1106 694 1106Q821 1106 902.5 1052.0Q984 998 1023.0 908.0Q1062 818 1062 710V0Z"/></g>
    <g transform="translate(273.854 134.000) scale(0.048780 -0.048780)"><path d="M642 -30Q476 -30 349.5 41.5Q223 113 151.5 238.5Q80 364 80 526Q80 703 150.0 834.0Q220 965 343.0 1037.5Q466 1110 626 1110Q796 1110 915.0 1030.0Q1034 950 1091.0 805.0Q1148 660 1131 464H862V564Q862 729 809.5 801.5Q757 874 638 874Q499 874 433.5 789.5Q368 705 368 540Q368 389 433.5 306.5Q499 224 626 224Q706 224 763.0 259.0Q820 294 850 360L1122 282Q1061 134 929.5 52.0Q798 -30 642 -30ZM284 464V666H1000V464Z"/></g>
    <g transform="translate(333.659 134.000) scale(0.048780 -0.048780)"><path d="M140 0V1080H380V816L354 850Q375 906 410.0 952.0Q445 998 496 1028Q535 1052 581.0 1065.5Q627 1079 676.0 1082.5Q725 1086 774 1080V826Q729 840 669.5 835.5Q610 831 562 808Q514 786 481.0 749.5Q448 713 431.0 663.5Q414 614 414 552V0Z"/></g>
    <g transform="translate(374.341 134.000) scale(0.048780 -0.048780)"><path d="M542 -32Q415 -32 335.0 11.0Q255 54 210.5 120.0Q166 186 147.0 257.5Q128 329 124.0 388.0Q120 447 120 474V1080H396V570Q396 533 400.0 475.5Q404 418 425.0 360.0Q446 302 493.5 263.0Q541 224 628 224Q663 224 703.0 235.0Q743 246 778.0 277.5Q813 309 835.5 370.5Q858 432 858 532L1014 458Q1014 330 962.0 218.0Q910 106 805.5 37.0Q701 -32 542 -32ZM892 0V358H858V1080H1132V0Z"/></g>
    <g transform="translate(436.878 134.000) scale(0.048780 -0.048780)"><path d="M788 0Q676 -21 568.5 -18.5Q461 -16 376.5 19.5Q292 55 248 134Q208 208 206.0 284.5Q204 361 204 458V1380H476V474Q476 411 477.5 360.5Q479 310 498 280Q534 223 613.0 218.0Q692 213 788 226ZM20 870V1080H788V870Z"/></g>
    <g transform="translate(480.683 134.000) scale(0.048780 -0.048780)"><path d="M440 -30Q324 -30 243.5 14.5Q163 59 121.5 133.5Q80 208 80 298Q80 373 103.0 435.0Q126 497 177.5 544.5Q229 592 316 624Q376 646 459.0 663.0Q542 680 647.0 695.5Q752 711 878 730L780 676Q780 772 734.0 817.0Q688 862 580 862Q520 862 455.0 833.0Q390 804 364 730L118 808Q159 942 272.0 1026.0Q385 1110 580 1110Q723 1110 834.0 1066.0Q945 1022 1002 914Q1034 854 1040.0 794.0Q1046 734 1046 660V0H808V222L842 176Q763 67 671.5 18.5Q580 -30 440 -30ZM498 184Q573 184 624.5 210.5Q676 237 706.5 271.0Q737 305 748 328Q769 372 772.5 430.5Q776 489 776 528L856 508Q735 488 660.0 474.5Q585 461 539.0 450.0Q493 439 458 426Q418 410 393.5 391.5Q369 373 357.5 351.0Q346 329 346 302Q346 265 364.5 238.5Q383 212 417.0 198.0Q451 184 498 184Z"/></g>
    <g transform="translate(538.049 134.000) scale(0.048780 -0.048780)"><path d="M670 -30Q509 -30 401.0 45.0Q293 120 238.5 249.0Q184 378 184 540Q184 702 238.0 831.0Q292 960 397.0 1035.0Q502 1110 656 1110Q811 1110 926.0 1036.0Q1041 962 1104.5 833.5Q1168 705 1168 540Q1168 378 1105.5 249.0Q1043 120 931.0 45.0Q819 -30 670 -30ZM138 0V1440H412V740H378V0ZM626 212Q714 212 770.0 256.0Q826 300 853.0 374.5Q880 449 880 540Q880 630 852.0 704.5Q824 779 765.5 823.5Q707 868 616 868Q531 868 478.5 827.0Q426 786 402.0 712.0Q378 638 378 540Q378 442 402.0 368.0Q426 294 480.5 253.0Q535 212 626 212Z"/></g>
    <g transform="translate(599.415 134.000) scale(0.048780 -0.048780)"><path d="M160 0V1470H432V0Z"/></g>
    <g transform="translate(628.780 134.000) scale(0.048780 -0.048780)"><path d="M642 -30Q476 -30 349.5 41.5Q223 113 151.5 238.5Q80 364 80 526Q80 703 150.0 834.0Q220 965 343.0 1037.5Q466 1110 626 1110Q796 1110 915.0 1030.0Q1034 950 1091.0 805.0Q1148 660 1131 464H862V564Q862 729 809.5 801.5Q757 874 638 874Q499 874 433.5 789.5Q368 705 368 540Q368 389 433.5 306.5Q499 224 626 224Q706 224 763.0 259.0Q820 294 850 360L1122 282Q1061 134 929.5 52.0Q798 -30 642 -30ZM284 464V666H1000V464Z"/></g>
  </g>
</svg>
